<?xml version="1.0" encoding="UTF-8" standalone="no"?>
<svg
   xmlns:dc="http://purl.org/dc/elements/1.1/"
   xmlns:cc="http://creativecommons.org/ns#"
   xmlns:rdf="http://www.w3.org/1999/02/22-rdf-syntax-ns#"
   xmlns:svg="http://www.w3.org/2000/svg"
   xmlns="http://www.w3.org/2000/svg"
   height="448"
   width="448"
   version="1.1"
   id="svg2"
   viewBox="0 0 448 448">
  <metadata
     id="metadata10">
    <rdf:RDF>
      <cc:Work
         rdf:about="">
        <dc:format>image/svg+xml</dc:format>
        <dc:type
           rdf:resource="http://purl.org/dc/dcmitype/StillImage" />
        <dc:title></dc:title>
      </cc:Work>
    </rdf:RDF>
  </metadata>
  <defs
     id="defs8" />
  <path
     style="fill:#ffffff"
     id="path4"
     d="m 416,176 -144,0 0,-144 C 272,14.33 257.67,0 240,0 l -32,0 c -17.67,0 -32,14.33 -32,32 l 0,144 -144,0 C 14.33,176 0,190.33 0,208 l 0,32 c 0,17.67 14.33,32 32,32 l 144,0 0,144 c 0,17.67 14.33,32 32,32 l 32,0 c 17.67,0 32,-14.33 32,-32 l 0,-144 144,0 c 17.67,0 32,-14.33 32,-32 l 0,-32 c 0,-17.67 -14.33,-32 -32,-32 z" />
</svg>
